<mxfile host="app.diagrams.net" agent="Mozilla/5.0 (X11; Ubuntu; Linux x86_64; rv:131.0) Gecko/20100101 Firefox/131.0" version="24.8.4">
  <diagram name="Seite-1" id="xVaGIfG1mdDhcP3UuCrx">
    <mxGraphModel dx="2004" dy="1155" grid="1" gridSize="10" guides="1" tooltips="1" connect="1" arrows="1" fold="1" page="1" pageScale="1" pageWidth="1169" pageHeight="827" math="0" shadow="0">
      <root>
        <mxCell id="0" />
        <mxCell id="1" parent="0" />
        <mxCell id="DOS90As0mcKC3zTqq6gp-18" style="edgeStyle=none;rounded=0;orthogonalLoop=1;jettySize=auto;html=1;endArrow=none;endFill=0;" edge="1" parent="1" source="DOS90As0mcKC3zTqq6gp-1" target="DOS90As0mcKC3zTqq6gp-5">
          <mxGeometry relative="1" as="geometry" />
        </mxCell>
        <mxCell id="DOS90As0mcKC3zTqq6gp-19" style="edgeStyle=none;rounded=0;orthogonalLoop=1;jettySize=auto;html=1;endArrow=none;endFill=0;" edge="1" parent="1" source="DOS90As0mcKC3zTqq6gp-1" target="DOS90As0mcKC3zTqq6gp-4">
          <mxGeometry relative="1" as="geometry" />
        </mxCell>
        <mxCell id="DOS90As0mcKC3zTqq6gp-20" style="edgeStyle=none;rounded=0;orthogonalLoop=1;jettySize=auto;html=1;endArrow=none;endFill=0;" edge="1" parent="1" source="DOS90As0mcKC3zTqq6gp-1" target="DOS90As0mcKC3zTqq6gp-6">
          <mxGeometry relative="1" as="geometry" />
        </mxCell>
        <mxCell id="DOS90As0mcKC3zTqq6gp-21" style="edgeStyle=none;rounded=0;orthogonalLoop=1;jettySize=auto;html=1;endArrow=none;endFill=0;" edge="1" parent="1" source="DOS90As0mcKC3zTqq6gp-1" target="DOS90As0mcKC3zTqq6gp-3">
          <mxGeometry relative="1" as="geometry" />
        </mxCell>
        <mxCell id="DOS90As0mcKC3zTqq6gp-22" style="edgeStyle=none;rounded=0;orthogonalLoop=1;jettySize=auto;html=1;endArrow=none;endFill=0;" edge="1" parent="1" source="DOS90As0mcKC3zTqq6gp-1" target="DOS90As0mcKC3zTqq6gp-8">
          <mxGeometry relative="1" as="geometry" />
        </mxCell>
        <mxCell id="DOS90As0mcKC3zTqq6gp-23" style="edgeStyle=none;rounded=0;orthogonalLoop=1;jettySize=auto;html=1;entryX=0.5;entryY=0;entryDx=0;entryDy=0;endArrow=none;endFill=0;" edge="1" parent="1" source="DOS90As0mcKC3zTqq6gp-1" target="DOS90As0mcKC3zTqq6gp-7">
          <mxGeometry relative="1" as="geometry" />
        </mxCell>
        <mxCell id="DOS90As0mcKC3zTqq6gp-24" style="edgeStyle=none;rounded=0;orthogonalLoop=1;jettySize=auto;html=1;entryX=0;entryY=0.5;entryDx=0;entryDy=0;endArrow=none;endFill=0;" edge="1" parent="1" source="DOS90As0mcKC3zTqq6gp-1" target="DOS90As0mcKC3zTqq6gp-10">
          <mxGeometry relative="1" as="geometry" />
        </mxCell>
        <mxCell id="DOS90As0mcKC3zTqq6gp-35" style="edgeStyle=none;rounded=0;orthogonalLoop=1;jettySize=auto;html=1;entryX=0;entryY=0.5;entryDx=0;entryDy=0;endArrow=none;endFill=0;" edge="1" parent="1" source="DOS90As0mcKC3zTqq6gp-1" target="DOS90As0mcKC3zTqq6gp-9">
          <mxGeometry relative="1" as="geometry" />
        </mxCell>
        <mxCell id="DOS90As0mcKC3zTqq6gp-1" value="ModelData" style="rounded=0;whiteSpace=wrap;html=1;" vertex="1" parent="1">
          <mxGeometry x="270" y="320" width="120" height="60" as="geometry" />
        </mxCell>
        <mxCell id="DOS90As0mcKC3zTqq6gp-26" style="edgeStyle=none;rounded=0;orthogonalLoop=1;jettySize=auto;html=1;entryX=1;entryY=1;entryDx=0;entryDy=0;endArrow=none;endFill=0;" edge="1" parent="1" source="DOS90As0mcKC3zTqq6gp-2" target="DOS90As0mcKC3zTqq6gp-11">
          <mxGeometry relative="1" as="geometry" />
        </mxCell>
        <mxCell id="DOS90As0mcKC3zTqq6gp-27" style="edgeStyle=none;rounded=0;orthogonalLoop=1;jettySize=auto;html=1;endArrow=none;endFill=0;" edge="1" parent="1" source="DOS90As0mcKC3zTqq6gp-2" target="DOS90As0mcKC3zTqq6gp-12">
          <mxGeometry relative="1" as="geometry" />
        </mxCell>
        <mxCell id="DOS90As0mcKC3zTqq6gp-28" style="edgeStyle=none;rounded=0;orthogonalLoop=1;jettySize=auto;html=1;endArrow=none;endFill=0;" edge="1" parent="1" source="DOS90As0mcKC3zTqq6gp-2" target="DOS90As0mcKC3zTqq6gp-13">
          <mxGeometry relative="1" as="geometry" />
        </mxCell>
        <mxCell id="DOS90As0mcKC3zTqq6gp-29" style="edgeStyle=none;rounded=0;orthogonalLoop=1;jettySize=auto;html=1;endArrow=none;endFill=0;" edge="1" parent="1" source="DOS90As0mcKC3zTqq6gp-2" target="DOS90As0mcKC3zTqq6gp-14">
          <mxGeometry relative="1" as="geometry" />
        </mxCell>
        <mxCell id="DOS90As0mcKC3zTqq6gp-30" style="edgeStyle=none;rounded=0;orthogonalLoop=1;jettySize=auto;html=1;endArrow=none;endFill=0;" edge="1" parent="1" source="DOS90As0mcKC3zTqq6gp-2" target="DOS90As0mcKC3zTqq6gp-15">
          <mxGeometry relative="1" as="geometry" />
        </mxCell>
        <mxCell id="DOS90As0mcKC3zTqq6gp-31" style="edgeStyle=none;rounded=0;orthogonalLoop=1;jettySize=auto;html=1;endArrow=none;endFill=0;" edge="1" parent="1" source="DOS90As0mcKC3zTqq6gp-2" target="DOS90As0mcKC3zTqq6gp-16">
          <mxGeometry relative="1" as="geometry" />
        </mxCell>
        <mxCell id="DOS90As0mcKC3zTqq6gp-32" style="edgeStyle=none;rounded=0;orthogonalLoop=1;jettySize=auto;html=1;endArrow=none;endFill=0;" edge="1" parent="1" source="DOS90As0mcKC3zTqq6gp-2" target="DOS90As0mcKC3zTqq6gp-17">
          <mxGeometry relative="1" as="geometry" />
        </mxCell>
        <mxCell id="DOS90As0mcKC3zTqq6gp-33" style="edgeStyle=none;rounded=0;orthogonalLoop=1;jettySize=auto;html=1;entryX=1;entryY=0.5;entryDx=0;entryDy=0;endArrow=none;endFill=0;" edge="1" parent="1" source="DOS90As0mcKC3zTqq6gp-2" target="DOS90As0mcKC3zTqq6gp-10">
          <mxGeometry relative="1" as="geometry" />
        </mxCell>
        <mxCell id="DOS90As0mcKC3zTqq6gp-34" style="edgeStyle=none;rounded=0;orthogonalLoop=1;jettySize=auto;html=1;entryX=1;entryY=0.5;entryDx=0;entryDy=0;endArrow=none;endFill=0;" edge="1" parent="1" source="DOS90As0mcKC3zTqq6gp-2" target="DOS90As0mcKC3zTqq6gp-9">
          <mxGeometry relative="1" as="geometry" />
        </mxCell>
        <mxCell id="DOS90As0mcKC3zTqq6gp-2" value="TensorData" style="rounded=0;whiteSpace=wrap;html=1;" vertex="1" parent="1">
          <mxGeometry x="843" y="320" width="120" height="60" as="geometry" />
        </mxCell>
        <mxCell id="DOS90As0mcKC3zTqq6gp-3" value="&lt;u&gt;uri&lt;/u&gt;" style="ellipse;whiteSpace=wrap;html=1;" vertex="1" parent="1">
          <mxGeometry x="160" y="325" width="76" height="50" as="geometry" />
        </mxCell>
        <mxCell id="DOS90As0mcKC3zTqq6gp-4" value="name" style="ellipse;whiteSpace=wrap;html=1;" vertex="1" parent="1">
          <mxGeometry x="210" y="250" width="76" height="50" as="geometry" />
        </mxCell>
        <mxCell id="DOS90As0mcKC3zTqq6gp-5" value="description" style="ellipse;whiteSpace=wrap;html=1;" vertex="1" parent="1">
          <mxGeometry x="300" y="230" width="76" height="50" as="geometry" />
        </mxCell>
        <mxCell id="DOS90As0mcKC3zTqq6gp-6" value="version" style="ellipse;whiteSpace=wrap;html=1;" vertex="1" parent="1">
          <mxGeometry x="390" y="240" width="76" height="50" as="geometry" />
        </mxCell>
        <mxCell id="DOS90As0mcKC3zTqq6gp-7" value="author" style="ellipse;whiteSpace=wrap;html=1;" vertex="1" parent="1">
          <mxGeometry x="300" y="410" width="76" height="50" as="geometry" />
        </mxCell>
        <mxCell id="DOS90As0mcKC3zTqq6gp-8" value="license" style="ellipse;whiteSpace=wrap;html=1;" vertex="1" parent="1">
          <mxGeometry x="210" y="400" width="76" height="50" as="geometry" />
        </mxCell>
        <mxCell id="DOS90As0mcKC3zTqq6gp-9" value="&lt;div&gt;ModelData&lt;/div&gt;&lt;div&gt;Output&lt;/div&gt;" style="rhombus;whiteSpace=wrap;html=1;" vertex="1" parent="1">
          <mxGeometry x="560" y="377.5" width="100" height="100" as="geometry" />
        </mxCell>
        <mxCell id="DOS90As0mcKC3zTqq6gp-10" value="&lt;div&gt;ModelData&lt;/div&gt;&lt;div&gt;Input&lt;br&gt;&lt;/div&gt;" style="rhombus;whiteSpace=wrap;html=1;" vertex="1" parent="1">
          <mxGeometry x="560" y="222.5" width="100" height="100" as="geometry" />
        </mxCell>
        <mxCell id="DOS90As0mcKC3zTqq6gp-11" value="&lt;u&gt;id&lt;/u&gt;" style="ellipse;whiteSpace=wrap;html=1;" vertex="1" parent="1">
          <mxGeometry x="760" y="245" width="76" height="50" as="geometry" />
        </mxCell>
        <mxCell id="DOS90As0mcKC3zTqq6gp-12" value="name" style="ellipse;whiteSpace=wrap;html=1;" vertex="1" parent="1">
          <mxGeometry x="865" y="230" width="76" height="50" as="geometry" />
        </mxCell>
        <mxCell id="DOS90As0mcKC3zTqq6gp-13" value="description" style="ellipse;whiteSpace=wrap;html=1;" vertex="1" parent="1">
          <mxGeometry x="970" y="260" width="76" height="50" as="geometry" />
        </mxCell>
        <mxCell id="DOS90As0mcKC3zTqq6gp-14" value="type" style="ellipse;whiteSpace=wrap;html=1;" vertex="1" parent="1">
          <mxGeometry x="989" y="325" width="76" height="50" as="geometry" />
        </mxCell>
        <mxCell id="DOS90As0mcKC3zTqq6gp-15" value="shape" style="ellipse;whiteSpace=wrap;html=1;" vertex="1" parent="1">
          <mxGeometry x="970" y="400" width="76" height="50" as="geometry" />
        </mxCell>
        <mxCell id="DOS90As0mcKC3zTqq6gp-16" value="min" style="ellipse;whiteSpace=wrap;html=1;" vertex="1" parent="1">
          <mxGeometry x="865" y="420" width="76" height="50" as="geometry" />
        </mxCell>
        <mxCell id="DOS90As0mcKC3zTqq6gp-17" value="max" style="ellipse;whiteSpace=wrap;html=1;" vertex="1" parent="1">
          <mxGeometry x="760" y="400" width="76" height="50" as="geometry" />
        </mxCell>
        <mxCell id="DOS90As0mcKC3zTqq6gp-36" value="n" style="text;html=1;align=center;verticalAlign=middle;resizable=0;points=[];autosize=1;strokeColor=none;fillColor=none;" vertex="1" parent="1">
          <mxGeometry x="475" y="298" width="30" height="30" as="geometry" />
        </mxCell>
        <mxCell id="DOS90As0mcKC3zTqq6gp-37" value="m" style="text;html=1;align=center;verticalAlign=middle;resizable=0;points=[];autosize=1;strokeColor=none;fillColor=none;" vertex="1" parent="1">
          <mxGeometry x="475" y="375" width="30" height="30" as="geometry" />
        </mxCell>
        <mxCell id="DOS90As0mcKC3zTqq6gp-38" value="0..1" style="text;html=1;align=center;verticalAlign=middle;resizable=0;points=[];autosize=1;strokeColor=none;fillColor=none;" vertex="1" parent="1">
          <mxGeometry x="720" y="300" width="40" height="30" as="geometry" />
        </mxCell>
        <mxCell id="DOS90As0mcKC3zTqq6gp-39" value="0..1" style="text;html=1;align=center;verticalAlign=middle;resizable=0;points=[];autosize=1;strokeColor=none;fillColor=none;" vertex="1" parent="1">
          <mxGeometry x="720" y="370" width="40" height="30" as="geometry" />
        </mxCell>
      </root>
    </mxGraphModel>
  </diagram>
</mxfile>
